{"title":"Two and a Half Men S08E15 HDTV XviD-LOL","uid":6159712,"size":182945034,"categoryP":"video","categoryS":"tv_shows","magnet":"?xt=urn:btih:27afc6a2612339e56f1542b9224076ec281ff7c6&amp;dn=Two+and+a+Half+Men+S08E15+HDTV+XviD-LOL&amp;tr=udp%3A%2F%2Ftracker.openbittorrent.com%3A80&amp;tr=udp%3A%2F%2Fopen.demonii.com%3A1337&amp;tr=udp%3A%2F%2Ftracker.coppersurfer.tk%3A6969&amp;tr=udp%3A%2F%2Fexodus.desync.com%3A6969","seeders":1,"leechers":0,"uploader":"TheCloon","files":-1,"time":1297124192,"description":"### TheCloon ###\n\nFeb 7, 2011\n\nTwo and a Half Men S08E15 HDTV XviD-LOL\n\nEpisode 15, Season 8 Plot:\nWhile Charlie and Rose carry on their &quot;affair,&quot; Alan's chiropractic business turns into a Ponzi scheme.\n\n[Video Information]\n\n\nFormat                           : AVI\nFormat/Info                      : Audio Video Interleave\nFile size                        : 174 MiB\nDuration                         : 21mn 11s\nOverall bit rate                 : 1 150 Kbps\nWriting application              : transcode-1.0.6\n\nVideo\nID                               : 0\nFormat                           : MPEG-4 Visual\nFormat profile                   : Advanced Simple@L5\nFormat settings, BVOP            : 2\nFormat settings, QPel            : No\nFormat settings, GMC             : No warppoints\nFormat settings, Matrix          : Default (H.263)\nCodec ID                         : XVID\nCodec ID/Hint                    : XviD\nDuration                         : 21mn 11s\nBit rate                         : 971 Kbps\nWidth                            : 624 pixels\nHeight                           : 352 pixels\nDisplay aspect ratio             : 16:9\nFrame rate                       : 23.976 fps\nColor space                      : YUV\nChroma subsampling               : 4:2:0\nBit depth                        : 8 bits\nScan type                        : Progressive\nCompression mode                 : Lossy\nBits/(Pixel*Frame)               : 0.184\nStream size                      : 147 MiB (84%)\nWriting library                  : XviD 1.2.1 (UTC 2008-12-04)\n\nAudio\nID                               : 1\nFormat                           : MPEG Audio\nFormat version                   : Version 1\nFormat profile                   : Layer 3\nMode                             : Joint stereo\nMode extension                   : MS Stereo\nCodec ID                         : 55\nCodec ID/Hint                    : MP3\nDuration                         : 21mn 11s\nBit rate mode                    : Variable\nBit rate                         : 160 Kbps\nChannel(s)                       : 2 channels\nSampling rate                    : 48.0 KHz\nCompression mode                 : Lossy\nStream size                      : 25.2 MiB (14%)\nAlignment                        : Aligned on interleaves\nInterleave, duration             : 24 ms (0.58 video frame)\nWriting library                  : LAME3.90.\nEncoding settings                : -m j -V 4 -q 2 -lowpass 18 --abr 160\n\n\n[TVRage Info URL] &lt;a href=&quot;\nhttp://www.tvrage.com/Two_and_a_Half_Men&quot; rel=&quot;nofollow&quot; target=&quot;_NEW&quot;&gt;\nhttp://www.tvrage.com/Two_and_a_Half_Men&lt;/a&gt;\n","torrent":{"xt":"urn:btih:27afc6a2612339e56f1542b9224076ec281ff7c6","amp;dn":"Two+and+a+Half+Men+S08E15+HDTV+XviD-LOL","amp;tr":["udp%3A%2F%2Ftracker.openbittorrent.com%3A80","udp%3A%2F%2Fopen.demonii.com%3A1337","udp%3A%2F%2Ftracker.coppersurfer.tk%3A6969","udp%3A%2F%2Fexodus.desync.com%3A6969"],"infoHash":"27afc6a2612339e56f1542b9224076ec281ff7c6","infoHashBuffer":{"type":"Buffer","data":[39,175,198,162,97,35,57,229,111,21,66,185,34,64,118,236,40,31,247,198]},"announce":[],"urlList":[]}}